<svg version="1.0" xmlns="http://www.w3.org/2000/svg" viewBox="0 0 100 100"><path d="M48.8.7c.6.2 1.8.2 2.5 0 .6-.3.1-.5-1.3-.5-1.4 0-1.9.2-1.2.5zM.2 50c0 1.4.2 1.9.5 1.2.2-.6.2-1.8 0-2.5-.3-.6-.5-.1-.5 1.3zm99 0c0 1.4.2 1.9.5 1.2.2-.6.2-1.8 0-2.5-.3-.6-.5-.1-.5 1.3z" fill="#D51E1E" fill-opacity=".17"/><path d="M37.1 2.6c-3 .8-7.7 2.7-10.5 4.2-6.5 3.4-16.3 13.3-19.8 19.8-7.7 14.3-7.7 32.5 0 46.8 3.4 6.5 13.3 16.4 19.8 19.8 5.7 3.1 15.2 5.8 20.1 5.8 3.2 0 3.3-.1 2-2.2-.8-1.3-2-6.3-2.6-11.3-.6-5-1.7-11.6-2.3-14.8-.7-3.7-.9-10.4-.5-18 1.4-25 3.1-26.3 4.2-3 .7 17 3.8 48 4.9 49.1 1.2 1.1 13.2-1.8 19.3-4.8 7-3.5 15.1-10.4 18.4-15.6 2.2-3.6 2.2-3.6.2-6.2-3.4-4.6-13.2-11.9-21.2-15.9l-7.7-3.7 4.5-7.3c5.2-8.5 6-14.5 2.6-18.3-1.8-2-2.6-2.1-7.4-1.6-9.6 1.2-22.4 6-30.8 11.7-4.5 3.2-5.3 3.4-5.3 1.9 0-1.6 14.1-10.4 21.7-13.5 5.5-2.3 8.4-2.8 15.1-2.9 7.6-.1 8.5.1 10.3 2.3 1 1.3 1.9 3.8 1.9 5.5 0 4.7-2.6 12.8-5.5 17.1-1.4 2-2.5 3.8-2.3 4 .2.1 2.7 1 5.6 2.1 4.2 1.5 7.1 3.6 13.7 10.3 9.4 9.5 9.1 9.5 12-1.5 3-11.5 1.4-25.3-4.3-35.8-3.4-6.5-13.3-16.4-19.8-19.8C62.9 1.2 48.5-.5 37.1 2.6z" fill="#C00"/><path d="M60.3 22.7c1.5.2 3.9.2 5.5 0 1.5-.2.2-.4-2.8-.4s-4.3.2-2.7.4zM45.2 79c0 1.4.2 1.9.5 1.2.2-.6.2-1.8 0-2.5-.3-.6-.5-.1-.5 1.3z" fill="#D21B1B" fill-opacity=".33"/></svg>